{"title":"Sucker Punch 2011 XViD DVDRip - DTRG","uid":6474341,"size":1125615856,"categoryP":"video","categoryS":"movies","magnet":"?xt=urn:btih:463340425f4069af870ae76ee14e9450ad8b2645&amp;dn=Sucker+Punch+2011+XViD+DVDRip+-+DTRG&amp;tr=udp%3A%2F%2Ftracker.openbittorrent.com%3A80&amp;tr=udp%3A%2F%2Fopen.demonii.com%3A1337&amp;tr=udp%3A%2F%2Ftracker.coppersurfer.tk%3A6969&amp;tr=udp%3A%2F%2Fexodus.desync.com%3A6969","seeders":0,"leechers":0,"uploader":"TPBAgri","files":-1,"time":1308262575,"description":"Sucker Punch is a 2011 action-fantasy thriller film, about the fantasies of a young woman who is committed to a mental institution. It was written by Steve Shibuya and Zack Snyder and directed by Snyder. The film features an ensemble cast starring Emily Browning as the central character (Babydoll)and Abbie Cornish as the second main character (Sweet Pea), as well as Oscar Isaac (Blue).The film was released in both conventional and IMAX theatres in the US at midnight on March 25, 2011.A young girl is institutionalized by her wicked stepfather. Retreating to an alternative reality as a coping strategy, she envisions a plan which will help her escape from the facility. \n\n\n\nFormat : AVI\nFormat/Info : Audio Video Interleave\nFormat profile : OpenDML\nFile size : 1.05 GiB\nDuration : 1h 47mn\nOverall bit rate : 1 398 Kbps\nWriting library : MPlayer\n\nVideo\nID : 0\nFormat : MPEG-4 Visual\nCodec ID : XVID\nCodec ID/Hint : XviD\nDuration : 1h 47mn\nBit rate : 52.3 Kbps\nWidth : 672 pixels\nHeight : 288 pixels\nDisplay aspect ratio : 2.35:1\nFrame rate : 23.976 fps\nColor space : YUV\nChroma subsampling : 4:2:0\nCompression mode : Lossy\nBits/(Pixel*Frame) : 0.011\nStream size : 40.1 MiB (4%)\n\nAudio\nID : 1\nFormat : AC-3\nFormat/Info : Audio Coding 3\nCodec ID : 2000\nDuration : 1h 47mn\nBit rate mode : Constant\nBit rate : 384 Kbps\nChannel(s) : 6 channels\nSampling rate : 48.0 KHz\nCompression mode : Lossy\nStream size : 295 MiB (27%)\nAlignment : Aligned on interleaves","torrent":{"xt":"urn:btih:463340425f4069af870ae76ee14e9450ad8b2645","amp;dn":"Sucker+Punch+2011+XViD+DVDRip+-+DTRG","amp;tr":["udp%3A%2F%2Ftracker.openbittorrent.com%3A80","udp%3A%2F%2Fopen.demonii.com%3A1337","udp%3A%2F%2Ftracker.coppersurfer.tk%3A6969","udp%3A%2F%2Fexodus.desync.com%3A6969"],"infoHash":"463340425f4069af870ae76ee14e9450ad8b2645","infoHashBuffer":{"type":"Buffer","data":[70,51,64,66,95,64,105,175,135,10,231,110,225,78,148,80,173,139,38,69]},"announce":[],"urlList":[]}}